<svg xmlns="http://www.w3.org/2000/svg" viewBox="0 0 2133 1733" shape-rendering="geometricPrecision" text-rendering="geometricPrecision" image-rendering="optimizeQuality" fill-rule="evenodd" clip-rule="evenodd">
    <defs>
        <style>
        <![CDATA[ .fil27 {
            fill: #FEFEFE
        }
        
        .fil45 {
            fill: #5B5B5B
        }
        
        .fil32 {
            fill: white
        }
        
        .fil35 {
            fill: #FEFEFE;
            fill-rule: nonzero
        }
        
        .fil40 {
            fill: #1A1A1A;
            fill-rule: nonzero
        }
        
        .b01 {
            fill: #22697D;
            fill-rule: nonzero
        }
        
        .b00 {
            fill: #2AB1D6;
            fill-rule: nonzero
        }
        
        .fil25 {
            fill: #3D9AB3;
            fill-rule: nonzero
        }
        
        .fil12 {
            fill: #4D382D;
            fill-rule: nonzero
        }
        
        .fil22 {
            fill: #528016;
            fill-rule: nonzero
        }
        
        .b31 {
            fill: #561C59;
            fill-rule: nonzero
        }
        
        .fil17 {
            fill: #594438;
            fill-rule: nonzero
        }
        
        .fil14 {
            fill: #5D4D44;
            fill-rule: nonzero
        }
        
        .fil7 {
            fill: #5D544D;
            fill-rule: nonzero
        }
        
        .fil11 {
            fill: #669E1A;
            fill-rule: nonzero
        }
        
        .fil13 {
            fill: #70645B;
            fill-rule: nonzero
        }
        
        .fil19 {
            fill: #726250;
            fill-rule: nonzero
        }
        
        .fil26 {
            fill: #726657;
            fill-rule: nonzero
        }
        
        .fil10 {
            fill: #754B28;
            fill-rule: nonzero
        }
        
        .b30 {
            fill: #7C3B80;
            fill-rule: nonzero
        }
        
        .fil2 {
            fill: #7CAF38;
            fill-rule: nonzero
        }
        
        .fil16 {
            fill: #83C6DB;
            fill-rule: nonzero
        }
        
        .b11 {
            fill: #84A11A;
            fill-rule: nonzero
        }
        
        .fil6 {
            fill: #8CC63F;
            fill-rule: nonzero
        }
        
        .b10 {
            fill: #B8D357;
            fill-rule: nonzero
        }
        
        .b21 {
            fill: #DE3721;
            fill-rule: nonzero
        }
        
        .fil39 {
            fill: #E6E6E6;
            fill-rule: nonzero
        }
        
        .fil15 {
            fill: #EBEBEB;
            fill-rule: nonzero
        }
        
        .fil8 {
            fill: #F9B54D;
            fill-rule: nonzero
        }
        
        .b20 {
            fill: #FF5E49;
            fill-rule: nonzero
        }
        
        .fil3 {
            fill: #FF6D6B;
            fill-rule: nonzero
        }
        
        .fil24 {
            fill: #FFA16B;
            fill-rule: nonzero
        }
        
        .fil9 {
            fill: #FFED80;
            fill-rule: nonzero
        }
        
        .fil23 {
            fill: white;
            fill-rule: nonzero
        }
        
        .fil18 {
            fill: black;
            fill-rule: nonzero;
            fill-opacity: 0.101961
        }
        
        .fil20 {
            fill: black;
            fill-rule: nonzero;
            fill-opacity: 0.149020
        }
        
        .fil21 {
            fill: black;
            fill-rule: nonzero;
            fill-opacity: 0.200000
        }
        
        .fil5 {
            fill: white;
            fill-rule: nonzero;
            fill-opacity: 0.270588
        }
        
        .fil1 {
            fill: white;
            fill-rule: nonzero;
            fill-opacity: 0.419608
        }
        
        .fil4 {
            fill: white;
            fill-rule: nonzero;
            fill-opacity: 0.509804
        }
        
        .fil44 {
            fill: #2B2A29;
            fill-opacity: 0.839216
        }
        
        .fil0 {
            fill: url(#id0);
            fill-rule: nonzero
        }
        
        .fnt2 {
            font-weight: normal;
            font-size: 63.1457px;
            font-family: 'Montserrat'
        }
        
        .fnt0 {
            font-weight: normal;
            font-size: 69.4449px;
            font-family: 'Montserrat'
        }
        
        .fnt1 {
            font-weight: normal;
            font-size: 166.665px;
            font-family: 'Montserrat'
        }
        ]]>
        </style>
        <linearGradient id="id0" gradientUnits="userSpaceOnUse" x1="1030.47" y1="220.378" x2="1105.6" y2="1512.95">
            <stop offset="0" stop-color="#64C8D6" />
            <stop offset=".259" stop-color="#82DDEA" />
            <stop offset="1" stop-color="#A1F2FF" />
        </linearGradient>
    </defs>
    <g id="background">
        <path class="fil0" d="M1 0v1733h2134V0z" />
        <path class="fil1" d="M1372 1013c3-13 13-23 25-23 11 0 21 7 25 18 3-1 6-2 9-2 15 0 26 14 26 31h-105c2-12 10-21 20-24zM287 499c-2-8-9-14-17-14s-14 4-17 11c-2-1-4-1-6-1-10 0-18 8-18 19h71c-1-7-6-13-13-15z" />
        <path class="fil2" d="M1957 194c15 4 30 8 44 11-17 7-34 9-53 9-3 0 0 2 1 2 20 0 40-2 58-10 11 2 23 4 34 6-14 8-28 16-43 23-2 1 2 3 3 2 16-7 31-16 46-25 9 1 19 2 29 2-12 14-25 24-40 32-1 0 2 2 3 1 16-8 30-19 41-33h18c12-1 24-2 37-4v-5c-14 2-27 3-39 4h-14c-5-11-10-23-14-34-1-2-5-2-4 0 5 11 9 23 14 34-9 0-17 0-26-1 0 0 0-1-1-1-10-14-13-32-20-48 0-2-4-2-3 0 6 17 9 34 20 49-14-2-27-4-40-7-10-15-16-31-24-47-1-2-5-2-4 0 8 16 14 32 23 46-15-3-30-6-44-11-4-1-6 4-2 5z" />
        <path class="fil3" d="M1938 212c2-4 7-5 10-2 4 2 8 7 6 11-2 3-10 3-14 1-3-2-4-7-2-10zM2020 151c3-3 8-6 12-4 3 3 3 9 1 12-3 4-7 5-11 2-3-2-4-6-2-10zM1971 149c3-4 8-4 12-2 3 2 4 7 2 10-2 4-7 5-10 3-4-3-6-8-4-11zM1942 185c2-3 9-3 12-1 4 2 5 7 2 10-2 4-6 5-10 2-3-2-6-8-4-11zM2056 166c3-4 9-3 12-1 4 2 5 7 3 10-3 3-7 4-11 2-3-2-6-8-4-11z" />
        <path class="fil4" d="M1305 443v-2c0-6 5-11 11-11 2 0 4 1 5 2 3-8 10-13 18-13h5c6-16 21-27 40-27s36 13 41 31h4c9 0 17 8 17 18v2h-141z" />
        <path class="fil5" d="M814 818v-2c0-6-5-11-11-11-3 0-5 1-6 2-3-8-10-13-18-13h-5c-7-16-23-27-42-27-20 0-37 13-42 31h-4c-10 0-18 8-18 18v2h146z" />
        <g id="_1787995045504">
            <path class="fil6" d="M623 770s-153 80-77 123c68 39 77-123 77-123zM683 858s-118 95-44 116c66 19 44-116 44-116zM858 961s-126-64-122 20c4 76 122-20 122-20zM754 1077s-57-82-79-24c-20 52 79 24 79 24zM715 1191s-26-118-72-61c-42 51 72 61 72 61zM549 1188s-4-148-71-90c-59 52 71 90 71 90z" />
            <path class="fil7" d="M709 993L-1 1161v-87z" />
            <path class="fil7" d="M533 895l-60 125-41 17zM542 1032l91 85-120-78z" />
        </g>
        <path class="fil8" d="M542 405c0 48-39 87-87 87s-87-39-87-87 39-87 87-87 87 39 87 87z" />
        <path class="fil9" d="M527 405c0 40-32 72-72 72s-72-32-72-72 32-72 72-72 72 32 72 72z" />
        <path class="fil10" d="M1379 569s398 227 756-45v80c-147 82-424 172-756-35z" />
        <path class="fil10" d="M1791 913s251-73 259-333l38-6s-3 266-297 339z" />
        <path class="fil11" d="M1600 681s-92 111-36 214c0 0 80-73 36-214zM1485 659s-91 28-97 105c0 0 71-11 97-105zM1395 603s-91 28-98 105c0 0 71-11 98-105zM1936 859s-30 74 18 119c0 0 30-52-18-119zM2017 785s-7 80 52 110c0 0 13-59-52-110zM1973 779s-63-49-120-16c0 0 43 44 120 16zM1906 850s-62-52-120-20c0 0 41 45 120 20zM1840 893s-81 1-104 62c0 0 60 8 104-62zM1367 556s-43-85-120-78c0 0 23 68 120 78zM1484 588s24-93-39-138c0 0-27 66 39 138zM1601 625s23-92-40-138c0 0-27 67 40 138z" />
        <path class="fil2" d="M1 283l9 12s10-15-9-51v39zm0-69c6 2 12 5 19 7 1 4 2 8 2 13-2 10-4 38 50 79 0 0 11-27-45-79-1-4-2-7-3-11 16 6 32 13 48 20 2 5 3 9 4 14 0 8 4 42 68 72 0 0-13-51-63-72-1-4-3-8-4-12 16 8 33 15 50 21 12 14 52 56 108 39 0 0-22-45-108-43-19-8-39-16-58-24 6-4 13-6 20-6 13 8 50 28 100 14 0 0-44-54-101-20-10 0-19 2-27 8-9-4-19-8-29-12 2-1 5-1 7-2 10 4 41 12 71-36 0 0-54-8-72 29-5 3-10 4-16 5-7-3-14-6-21-8v4zm0-6c13 0 41-5 55-53 0 0-38 4-55 29v24z" />
        <g id="_1787995031552">
            <path class="fil12" d="M242 970s10 78 104 77c0 0 80 1 105-77H242z" />
            <path class="fil13" d="M451 970c0 18-47 33-105 33s-104-15-104-33 46-33 104-33 105 15 105 33z" />
            <path class="fil14" d="M437 985v1c-18 10-52 17-91 17-41 0-76-8-93-18 1-14 42-25 92-25 51 0 92 11 92 25z" />
            <path class="fil15" d="M366 985c0 7-2 13-5 17-5 1-10 1-15 1-6 0-13 0-19-1-3-5-5-11-5-17 0-16 10-28 22-28s22 12 22 28zM310 992c-2 3-5 6-7 8-12-2-23-4-32-7-2-8-1-17 5-25 9-13 23-17 33-11 9 7 10 22 1 35z" />
            <path class="fil15" d="M409 977c3 6 4 13 3 18-11 3-24 5-38 7l-3-6c-7-14-4-29 7-34s24 2 31 15z" />
            <path class="fil12" d="M364 1023c36 0 70-15 101-32 3-2 0-8-3-6-30 17-63 32-98 32-4 0-4 6 0 6z" />
            <path class="fil13" d="M249 962c32-16 65-23 100-22 4 0 4-6 0-6-36-1-70 7-103 23-3 1 0 7 3 5z" />
            <path class="fil13" d="M303 936c25 7 52 9 77 12 4 1 6-5 2-6-26-3-52-5-78-12-3-1-5 5-1 6z" />
            <path class="fil13" d="M364 946c22-3 45-4 68-2 4 1 4-5 0-6-24-2-47-1-70 2-4 1-2 7 2 6z" />
            <path class="fil13" d="M399 937c12 9 25 18 38 26 3 3 6-3 3-5-13-8-25-17-38-26-3-3-6 3-3 5z" />
            <path class="fil12" d="M246 962c-4 14 2 27 9 38 2 4 7 1 5-3-6-10-11-21-8-33 1-4-5-6-6-2z" />
            <path class="fil12" d="M230 995c20 16 43 25 69 28 3 0 3-6 0-7-24-2-46-11-64-26-3-2-8 2-5 5z" />
            <path class="fil12" d="M257 965c-11 3-19 16-20 27 0 4 6 4 6 0 1-9 8-19 16-21 3-2 2-7-2-6zM434 970c10 2 17 8 21 17 2 4 7 1 6-3-5-10-14-18-25-20-4-1-6 5-2 6z" />
            <path class="fil12" d="M443 953c3 8 5 17 1 25-3 4 3 7 5 3 6-9 3-20 0-30-1-3-7-2-6 2zM421 1012c10 2 19 1 29-1 4-1 2-7-2-6-8 2-17 2-25 1-4-1-6 5-2 6z" />
            <path class="fil13" d="M265 943c12 3 24 6 36 11 4 1 6-5 2-6-12-4-24-8-37-11-3-1-5 5-1 6z" />
        </g>
        <g id="_1787995018656">
            <path class="fil16" d="M1514 1552c-19-55-89-86-142-62 6-23-1-48-18-64s-44-21-65-12c-4-26-22-49-46-58s-54-4-73 13c-36-33-98-29-129 8-5-23-23-42-45-48-22-7-48 0-64 17-23-24-48-46-79-56-32-9-70-1-87 27-25-45-67-87-118-87-49 0-93 45-91 94-25-31-84-20-96 17-25-22-65-26-94-10 2-23-11-46-31-56-20-11-47-8-64 6-42-26-106-6-125 40-3 7-5 14-10 20-5 7-13 10-21 14-65 32-103 111-89 182l1487 15z" />
            <path class="fil17" d="M1110 1480s-766-12-1109-52v109s1083-21 1109-57z" />
            <path class="fil2" d="M1 1513s1169 45 2134-191v411H1v-220z" />
            <path class="fil11" d="M1815 1401c1-5 1-10 0-16-3-19-18-32-32-29-3 0-5 1-7 3-13-25-35-41-57-37-16 3-28 15-35 33-4-2-9-3-14-2-12 2-20 13-24 27-5-3-10-4-15-3-15 3-24 21-20 42 1 7 4 13 7 18l197-36z" />
            <path class="fil18" d="M1783 1356c-3 0-5 1-7 3-13-25-35-41-57-37-2 1-4 1-6 2 23 15 48 41 43 88l59-11c1-5 1-10 0-16-3-19-18-32-32-29z" />
            <path class="fil19" d="M1933 1376l-12 1-3-81h12z" />
            <path class="fil20" d="M1926 1296l3 80h4l-3-80z" />
            <path class="fil21" d="M1918 1313v3s3 2 13 0l-1-4-12 1z" />
            <path class="fil22" d="M1942 1178c10-2 21-3 33-6-42-21-61-100-61-100 0 3-7 79-51 105 0 0 14 2 36 2-11 47-30 97-60 122 0 0 32 15 85 13 55-3 85-20 85-20-30-22-52-70-67-116z" />
            <path class="fil20" d="M1942 1178c10-2 21-3 33-6-42-21-61-100-61-100v2c10 54 67 240-67 220-3 3-5 5-8 7 0 0 32 15 85 13 55-3 85-20 85-20-30-22-52-70-67-116z" />
            <path class="fil23" d="M237 1604c-1 0-2-1-3-1 3-1 5-4 5-8-1-4-5-6-9-6-1 1-2 1-2 1 1-3 0-6-2-8-3-3-8-3-11 1 0 0 0 1-1 2-1-3-3-6-7-6s-7 4-7 8v2c-2-2-6-2-9 0-3 3-3 8 0 11l1 1c-3 1-6 3-6 6-1 4 2 8 6 9h2c-2 2-3 6-1 9s7 4 10 2c1 0 1-1 2-1 0 3 2 6 5 7 4 2 8 0 9-4 0-1 1-2 1-3 1 3 5 4 8 3 4-1 6-5 4-9 0-1 0-2-1-2 3 0 7-1 8-4 2-3 1-8-2-10z" />
            <path class="fil24" d="M220 1606c0 4-3 7-7 7-3 0-7-3-7-7 0-3 4-6 7-6 4 0 7 3 7 6z" />
            <path class="fil23" d="M474 1614c-1-1-2-2-3-2 4-2 7-7 6-12-1-6-7-10-13-9-1 0-3 0-4 1 2-5 1-10-3-14s-12-3-16 2c-1 1-1 2-2 3-1-5-5-8-11-8s-11 5-11 11c0 2 0 3 1 4-4-3-10-3-14 1-5 4-6 11-2 16 1 1 2 1 3 2-5 1-9 4-10 9-1 7 3 13 9 14h4c-3 3-4 9-2 13 4 6 11 8 16 5l3-3c0 5 2 10 7 12 6 2 13-1 15-7 0-1 1-3 1-4 3 4 8 6 13 4 6-2 9-8 7-14-1-2-1-3-2-4 5 2 10 0 13-5s1-12-5-15z" />
            <path class="fil24" d="M448 1617c0 6-5 11-10 11-6 0-12-6-12-11 0-6 6-10 12-10 5 0 10 5 10 10z" />
            <path class="fil23" d="M676 1601l-1-1c1 0 2-2 2-4s-3-4-5-3h-1c1-2 0-4-1-5-2-1-5-1-6 1 0 0-1 0-1 1 0-2-2-3-4-3s-4 2-4 4v1c-1-1-3-1-5 0-1 2-2 5 0 6 0 1 1 1 1 1-2 0-3 2-4 4 0 2 1 4 4 4h1c-1 2-2 4-1 5 2 2 4 3 6 2l1-1c0 2 1 4 3 4 2 1 4 0 5-2v-2c1 2 3 3 5 2s3-3 3-5c-1-1-1-1-1-2 2 1 4 0 5-2s0-4-2-5z" />
            <path class="fil24" d="M666 1602c0 2-1 4-3 4s-5-2-5-4 3-4 5-4 3 2 3 4z" />
            <path class="fil23" d="M766 1572h-2c3-1 4-4 3-6 0-3-3-5-6-5 0 1-1 1-2 1 2-2 1-5-1-6-2-2-6-2-8 0v2c-1-2-3-4-6-4s-5 2-5 5v2c-2-1-4-1-6 0-3 2-3 6-1 8l1 1c-2 0-4 2-4 5-1 3 1 5 4 6h2c-2 2-2 4-1 6 1 3 5 4 7 2 1 0 1 0 2-1 0 3 1 5 3 6 3 1 6-1 7-3v-2c2 2 4 3 7 2s4-4 3-7c0-1-1-1-1-2 2 1 5 0 6-2 2-3 1-6-2-8z" />
            <path class="fil24" d="M754 1574c0 3-3 5-5 5-3 0-6-3-6-5 0-3 3-5 6-5 2 0 5 2 5 5z" />
            <path class="fil23" d="M1644 1556c-1-1-2-1-4-1 5-2 7-7 6-11-1-6-6-10-12-9-1 1-2 1-3 2 2-4 1-9-2-12-5-4-11-3-15 1 0 1-1 2-1 3-2-4-6-8-10-8-6 0-10 5-10 10v4c-3-3-8-3-12 0-4 4-5 10-1 15 0 1 1 1 2 2-4 0-8 4-9 8-1 6 3 11 8 12h4c-3 3-4 8-2 12 3 5 9 7 14 4 1-1 2-2 3-2-1 4 2 8 6 10 6 2 11-1 13-6 1-1 1-2 1-3 3 3 7 5 12 3s8-7 6-13c-1-1-1-2-2-3 4 1 9 0 11-4 3-5 2-11-3-14z" />
            <path class="fil24" d="M1620 1559c0 5-4 9-9 9s-10-4-10-9 5-9 10-9 9 4 9 9z" />
            <path class="fil23" d="M1716 1616h-1c2-1 3-3 2-6 0-2-3-4-5-4-1 0-2 1-2 1 1-2 0-5-1-6-3-2-6-2-8 0v2c-1-2-3-4-5-4-3 0-5 2-5 5v2c-2-1-4-1-6 0-2 2-3 5-1 7l1 1c-2 1-4 2-4 5-1 2 1 5 4 5 1 1 1 1 2 0-2 2-2 5-1 7s4 3 7 1c0 0 1 0 1-1 0 3 1 5 4 5 2 1 5 0 6-3v-1c2 2 4 2 6 2 3-1 4-4 3-7 0 0 0-1-1-1 2 0 5-1 6-3s1-5-2-7z" />
            <path class="fil24" d="M1704 1618c0 2-2 5-4 5-3 0-5-3-5-5 0-3 2-5 5-5 2 0 4 3 4 5z" />
            <path class="fil23" d="M1993 1535c-1-1-1-1-2-1 3-2 5-6 4-10 0-4-5-7-10-7-1 1-1 1-2 1 1-3 0-7-3-10s-9-2-12 1c0 1-1 2-1 3-1-4-5-7-9-7s-8 4-8 9v3c-3-2-7-2-10 0-4 3-4 9-1 13 0 0 1 1 2 1-4 1-7 4-8 7-1 5 3 10 7 10 1 1 2 1 3 0-3 3-3 7-1 11s7 5 12 3l2-2c0 4 2 8 6 9 4 2 9-1 11-5v-3c2 3 6 5 10 3 5-1 7-6 5-11 0-1-1-2-1-2 3 1 8-1 10-4 2-5 0-10-4-12z" />
            <path class="fil24" d="M1973 1537c0 5-3 9-8 9-4 0-8-5-8-9s4-7 8-7c5 0 8 3 8 7z" />
            <path class="fil23" d="M1154 1623s-1 0-1-1c2-1 3-3 3-5-1-3-4-5-7-5l-1 1c1-2 0-5-2-7-2-1-5-1-7 1-1 1-1 1-1 2-1-3-3-4-5-4-3 0-6 2-6 5 0 1 0 1 1 2-2-1-5-1-7 0-2 2-2 6-1 8 1 0 1 1 2 1-3 0-5 2-5 4-1 3 1 6 4 7h2c-1 1-2 4-1 6 2 3 5 4 8 2l1-1c0 2 1 5 4 5 2 1 5 0 6-3 1 0 1-1 1-2 1 2 4 3 6 2 3-1 4-4 3-7 0 0 0-1-1-1 3 0 5 0 6-3 2-2 1-5-2-7z" />
            <path class="fil24" d="M1142 1625c0 2-2 5-5 5s-5-3-5-5c0-3 2-5 5-5s5 2 5 5z" />
        </g>
        <g id="_1787995018720">
            <path class="fil25" d="M749 554c-9-4-43-13-44 6s36 0 41-6c-5 7-24 27-5 30 17 3 9-22 8-30z" />
            <path class="fil25" d="M747 556c-4-9-18-41 0-45 19-4 5 36 1 42 5-6 23-28 28-10 6 17-20 12-29 13z" />
            <path class="fil26" d="M758 556c-5-2-11-6-14-10-3-5-11 0-8 5 4 6 11 11 18 13 5 2 9-6 4-8z" />
        </g>
        <path class="fil5" d="M253 684l1-1c0-7-6-12-12-12-2 0-4 1-6 2-3-8-10-13-18-13-2 0-3 0-5 1-6-17-22-28-41-28-20 0-38 13-43 32-1-1-2-1-4-1-10 0-18 8-18 19v1h146z" />
        <path class="fil1" d="M1761 295c-2-8-9-14-17-14s-14 4-17 11c-2-1-4-1-6-1-10 0-18 8-18 19h71c-1-7-6-13-13-15z" />
    </g>
    <g id="box">
        <rect class="fil27" x="815" y="1564" width="506.343" height="90.817" rx="18" ry="21" />
        <circle cx="904" cy="1610" r="21" id="circle0" />
        <circle cx="1017" cy="1610" r="21" id="circle1" />
        <circle cx="1129" cy="1610" r="21" id="circle2" />
        <circle cx="1232" cy="1610" r="21" id="circle3" />
    </g>
    <text x="1725" y="106" class="fil32 fnt0" id="timer_text">00:10 Sec</text>
    <text x="51" y="106" class="fil27 fnt0" id="score_text">Score: 100</text>
    <g class="birds" id="bird0">
        <g id="_1788014694320">
            <path class="b01" d="M1068 442c2-5 6-7 11-6 4 1 7 5 6 10 1-5 5-7 10-6 4 1 7 5 6 10-3 10-29 28-23 24 5-4-11-22-10-31v-1z" />
            <path class="b01" d="M1089 440c4-2 9-1 12 3 2 4 1 9-3 12 4-3 9-2 11 2 3 4 1 9-2 12-9 5-36 2-29 3 6 1 3-25 11-31v-1z" />
            <path class="fil23" d="M864 394l-20-8 8 16z" />
            <path class="fil23" d="M857 402l-13-2 10 7z" />
            <path class="b01" d="M939 313c0 5-3 9-8 9s-9-4-9-9 4-9 9-9 8 4 8 9zM966 319c0 4-3 8-8 8-4 0-8-4-8-8 0-5 4-8 8-8 5 0 8 3 8 8z" />
            <path class="b01" d="M957 357v-1h-2v-1c-1 0-1 0-1-1-1 0-1-1-2-2s-1-1-2-3c0-1-1-2-1-3-1-2-1-5-1-8v-4c0-1 1-3 1-4 1-1 1-2 2-3 0-1 1-2 2-3s1-2 2-2h1l1-1h2v1h-1c-1 1-1 1-2 1 0 1-1 2-1 2l-3 6c0 1-1 2-1 3 0 2-1 3-1 4 0 3 0 5 1 8 0 1 0 2 1 3 0 1 0 2 1 3 0 1 1 1 1 2 1 1 1 1 2 1 0 1 1 1 1 1v1zM948 348h-1-1-1-1c-1-1-2-1-2-2-1 0-2-1-3-2-1 0-2-1-3-2-1-2-3-5-4-7 0-2 0-3-1-4 0-2 0-3-1-4 0-2 0-3 1-4v-3c1-1 1-2 2-3 0 0 0-1 1-1h1c0-1 1-1 1-1h0c0 1 0 1-1 1 0 1 0 1-1 2v2c-1 2-1 4-1 7 1 1 1 2 1 3s0 3 1 4c0 2 1 5 3 7 0 1 1 2 2 2 1 1 1 2 2 2 1 1 2 1 2 2 1 0 2 0 2 1h2z" />
            <path class="fil23" d="M918 465c0-1 1-2 2-2 0 0 1 1 1 2 1 14 11 30 25 42 13 10 30 18 49 19 0 0 1 1 1 2 0 0-1 1-2 1-19-1-37-9-50-20-15-13-24-29-26-44zM900 471c-1-1 0-2 0-2 1-1 2 0 2 1 7 17 20 37 34 53 11 12 23 21 35 22 1 0 1 1 1 2s-1 1-2 1c-12-1-25-10-37-23-14-16-26-37-33-54z" />
            <path class="fil23" d="M978 526c-1 0-1-1 0-2 0 0 1-1 2 0l10 9v2h-2l-10-9zM951 540c-1-1 0-2 0-2 1 0 2 0 2 1l8 15c0 1 0 2-1 2-1 1-2 0-2-1l-7-15z" />
            <path class="b00" d="M852 402c-9 43 19 80 60 95 42 16 138 12 173-27-92 4-58-110-138-128-42-9-85 17-95 60z" />
            <path class="b01" d="M880 420v-1-2-1-1-3-3c1-1 1-2 1-3 1-1 1-2 2-4 0-1 1-2 2-4 1-1 1-2 2-3 2-3 5-5 8-7s6-4 10-5c3-1 7-2 11-2h3c1 0 2 0 2 1 2 0 4 0 6 1 1 0 2 0 3 1h1l1 1c1 0 2 1 3 1 0 1 1 1 2 2 3 2 5 4 7 7l3 3c1 2 1 3 2 4 1 2 1 3 2 4v3c1 1 1 3 1 3v7c-1-1-1-2-1-4 0-1 0-1-1-2 0-1 0-2-1-3 0-1-1-2-1-3-1-1-1-2-2-3-1-2-3-4-5-6-2-3-4-4-7-6s-6-3-9-4c-1 0-3 0-4-1h-5c-3 0-7 0-10 1s-6 2-8 4c-3 2-5 3-7 6-1 0-2 2-3 3s-2 2-2 3c-1 1-2 2-2 3-1 1-1 2-2 3 0 1 0 2-1 3v2c-1 2-1 3-1 4v1zM965 441s8-39 34-51c26-11 53-7 60 9 7 17-8 39-34 51-26 11-60-9-60-9z" />
            <path class="fil23" d="M990 398c1 1 2 1 3 1 5 1 10-2 12-6v-4l-6 1-9 8zM985 422c-5-1-10 2-12 6-1 5 1 8 6 9 4 1 10-2 11-7 2-4-1-8-5-8z" />
            <path class="fil23" d="M985 422c-5-1-10 2-12 6-1 5 1 8 6 9 4 1 10-2 11-7 2-4-1-8-5-8zM990 398c1 1 2 1 3 1 5 1 10-2 12-6v-4l-6 1-9 8zM1042 389c-5 0-10 3-12 7-1 4 1 8 6 9 5 0 10-3 11-7 2-4-1-8-5-9zM1056 411c-5-1-10 2-12 7-1 4 1 8 6 8h3l6-9v-5c-1 0-2-1-3-1zM1013 406c-5-1-10 2-11 6-2 4 1 8 5 9 5 0 10-3 12-7 1-4-1-8-6-8z" />
            <path class="fil23" d="M985 422c-5-1-10 2-12 6-1 5 1 8 6 9 4 1 10-2 11-7 2-4-1-8-5-8zM1027 427c-4 0-10 3-11 7-2 4 1 8 6 8 4 1 9-2 11-6s-1-8-6-9z" />
            <path class="fil23" d="M985 422c-5-1-10 2-12 6-1 5 1 8 6 9 4 1 10-2 11-7 2-4-1-8-5-8zM1027 427c-4 0-10 3-11 7-2 4 1 8 6 8 4 1 9-2 11-6s-1-8-6-9zM999 443c-5 0-10 3-12 7l11 3 6-1c2-4-1-8-5-9z" />
        </g>
    </g>
    <g class="birds" id="bird1">
        <g id="_1788014683088">
            <path class="fil23" d="M1839 521c-1 1 0 1 0 1 3 1 6 1 7 2 0 0-1 0-3 1h-1l1 1c2 0 4-1 4-1 1 0 1-1 1-2h-1c-2-1-5-2-8-2z" />
            <path class="fil35" d="M1818 584c0-1 0-2-1-2s-1 1-1 2v65c0 1 0 1 1 1s1 0 1-1v-65z" />
            <path class="fil35" d="M1817 650c1 0 2-1 1-2 0 0-1-1-2-1l-14 6s-1 1 0 2c0 1 1 1 1 1l14-6z" />
            <path class="fil35" d="M1818 649c1-1 0-1-1-2l-1 1-3 8 1 1c1 1 2 0 2 0l2-8z" />
            <g>
                <path class="fil35" d="M1793 584c0-1 0-2-1-2s-2 1-2 2v65c0 1 1 1 2 1s1 0 1-1v-65z" />
                <path class="fil35" d="M1792 650c1 0 1-1 1-2 0 0-1-1-2-1l-14 6c-1 0-1 1-1 2 1 1 2 1 2 1l14-6z" />
                <path class="fil35" d="M1793 649c0-1 0-1-1-2-1 0-1 1-2 1l-2 8s0 1 1 1c1 1 2 0 2 0l2-8z" />
            </g>
            <g>
                <path class="fil35" d="M1734 476l-36-9 36 17zM1730 491l-36-17 40 13z" />
            </g>
            <g>
                <path class="b10" d="M1990 682c7-22-79-11-151-47 0 0 141 79 151 47z" />
                <path class="b10" d="M1974 647c2-20-69 6-136-10 0 0 134 38 136 10z" />
                <path class="b10" d="M1940 624c-3-15-49 16-101 15 0 0 104 6 101-15z" />
                <path class="b10" d="M1732 468c-13 59-36 129 21 150 57 22 41 8 100 23-59-19 71-122 3-187-43-42-111-45-124 14z" />
            </g>
            <g>
                <path class="b11" d="M1835 452s-1 0-2-1l-3-3c-1-2-3-4-4-6-2-3-3-6-4-9s-2-7-3-11v-3-4c0-1 0-1 1-2v-1l1-1c1-2 2-4 4-6l2-2 1-1c1 0 1 0 1-1 4-2 8-3 13-4l3 1h5s1 0 1 1c1 0 2 0 3 1 2 1 3 2 4 3 1 2 1 3 1 5 0 3-2 7-5 9-2 3-5 5-7 4-1 0-2-1-3-2s-2-2-2-3c-1-2-1-5 0-6s3-1 4-1h2l-1-1h-3c-1 0-2 0-3 1s-2 2-2 3c-1 2-1 3 0 5 0 2 1 3 2 5 1 1 2 3 5 4h3c2 0 3 0 4-1 2-1 4-2 5-4 2-1 3-3 5-5 1-2 2-5 2-8 0-2 0-5-2-8-2-2-4-4-7-5-1-1-2-1-3-1s-2-1-2-1h-10c-5 0-10 2-14 5 0 1-1 1-1 1l-2 1c-1 1-1 2-2 3-2 2-3 4-4 6 0 1-1 1-1 2v1c-1 1-1 2-1 2v5c0 1 1 2 1 3 1 5 2 8 3 12 1 3 3 6 5 8 1 3 3 5 4 6l4 4c1 0 1 1 1 1l1-1zM1838 479v-2c0-1 0-2-1-4 1-2 1-5 1-8 1-2 1-6 3-9 1-3 2-6 5-10 0-1 1-2 1-2 1-1 1-2 2-3l1-1h1c1-1 1-1 2-1 0 0 0-1 1-1 2-1 4-1 6-1 1 0 2-1 3-1h2l1 1c5 0 9 2 12 4l3 2c1 1 1 2 2 3h1v1l1 1c1 1 1 2 2 3 0 2 1 4 1 5-1 2-2 3-3 4-2 3-6 4-10 5-3 0-7 0-8-2 0-1-1-2-1-3 0-2 0-3 1-4 0-3 2-4 4-4 1-1 3 0 3 1 1 0 1 1 1 1h1v-1s-1 0-1-1c0 0-1-1-2-1 0-1-1-1-3-2-1 0-2 1-3 2-2 1-3 2-3 4-1 1-2 3-2 5 0 1 0 4 2 6 0 0 0 1 1 1v1h1c1 1 2 1 3 2h7c2 0 5-1 7-1 2-1 4-3 6-5 2-1 4-4 4-7 1-3 0-6-2-8 0-2-1-3-2-4l-1-1-1-1-3-3c-1-1-2-2-3-2-4-3-9-5-14-5h-8c-2 1-4 1-6 2-1 0-1 1-2 1l-1 1c-1 0-1 1-2 1l-1 1c-1 1-2 2-2 3-1 1-1 2-2 3-2 3-3 7-4 11-1 3-2 6-2 9-1 3-1 6-1 8 1 2 1 3 1 5l1 1zM1803 525c23-10 78 90 64 106s-9-12-14-12-9 13-19 6c-9-6-4-26-7-27s-2 14-16 7c-14-8-1-36-7-40-7-4-20-6-13-23 3-9 4-14 12-17zM1747 474v10c1 1 1 2 1 3 1 2 1 3 2 4 0 1 1 3 2 4s1 2 2 4c2 2 5 4 8 7 3 2 6 3 9 4 2 1 4 1 6 2h11c2-1 4-1 6-2 1 0 1 0 2-1h1l2-1s1-1 2-1c1-1 2-1 2-1 3-3 6-5 8-7 1-1 1-3 2-4s2-3 2-4c1-1 1-2 2-4 0-1 0-2 1-3v-3-3-1-1-1-1 1c0 1 0 2-1 3 0 1 0 2-1 3 0 1 0 1-1 2 0 1 0 2-1 3 0 1-1 2-2 4s-3 4-5 6-4 4-6 5c-3 2-6 3-9 4-2 0-3 1-5 1h-5 1-5c-2 0-3-1-5-1-3-1-6-2-8-4-3-1-5-3-7-5l-3-3c-1-1-2-2-2-3-1-2-2-3-2-4-1-1-1-2-1-3-1-1-1-1-1-2-1-1-1-2-1-3s-1-2-1-3v-1z" />
            </g>
        </g>
    </g>
    <g class="birds" id="bird2">
        <g id="_1788014675568">
            <path class="fil35" d="M1333 962l15-16v19z" />
            <path class="fil35" d="M1343 967l12-8-7 11zM1249 1062c0-1 0-2 1-2s2 1 2 2c-2 15-12 32-28 45-14 12-32 20-53 20-1 0-1 0-1-1s0-2 1-2c20 0 37-8 51-19 15-12 25-29 27-43zM1268 1067c0-1 1-1 2-1 1 1 1 1 1 2-8 19-21 40-36 56-13 13-26 23-39 24-1 0-2-1-2-2l1-1c13-1 26-10 38-23 14-16 27-37 35-55z" />
            <path class="fil35" d="M1187 1122s1 0 2 1v2l-11 8c-1 1-2 1-2 0-1 0-1-1 0-2l11-9zM1214 1138c0-1 1-1 2 0 0 0 1 1 0 2l-7 16c-1 0-2 1-2 0-1 0-1-1-1-2l8-16z" />
            <path class="b20" d="M1355 982c10 44-20 82-62 98-43 16-142 11-177-28 94 4 59-113 141-132 44-10 88 18 98 62z" />
            <path class="fil23" d="M1285 995c17 9 38 1 46-16 8-18 1-38-17-46-17-9-38-1-46 16s-1 38 17 46z" />
            <path class="fil39" d="M1291 975c11 5 24 0 30-11 5-11 0-25-11-30s-25 0-30 11 0 24 11 30z" />
            <path class="fil40" d="M1297 970c9 5 21 0 25-9 5-10 1-21-9-25-10-5-21-1-25 9-5 9-1 21 9 25z" />
            <path class="fil23" d="M1296 945c4 2 9 0 11-4 1-4 0-8-4-10s-9 0-11 4c-1 4 0 8 4 10zM1293 953c1 1 3 0 4-1 0-1 0-3-2-4-1-1-3 0-4 2 0 1 0 3 2 3z" />
            <g>
                <path class="b21" d="M1234 999c-6-8-69-85-84-63-7 11 31 47 31 47s-47-29-53-13 26 23 37 35c0 0-45 1-37 19 5 12 85 1 98 0 13-2 14-17 8-25zM1107 1038c10 3 16 11 14 17s-12 8-21 5c-10-4-16-11-14-17 2-7 12-9 21-5zM1082 1021c4 6 4 13 0 15-4 3-10 0-14-7-4-6-4-13 0-15 4-3 10 0 14 7z" />
            </g>
            <path class="fil23" d="M1169 960v1c0 1-1 1-1 0-5-5-8-10-10-13-4-6-3-9-3-9 0-1 0-1 1-1 0-1 1-1 2-1 2 0 5 2 9 4s9 5 13 9c1 0 1 1 0 1 0 1 0 1-1 0-4-4-9-7-13-9-3-2-6-3-8-3h-2c0 1 0 3 4 8 1 4 4 8 9 13zM1151 987v1c0 1-1 1-1 1-6-4-10-6-13-9-4-3-5-5-4-8 0 0 0-1 1-1 0 0 1-1 3-1s5 1 8 2c4 1 8 2 12 4v1c0 1-1 1-1 1-4-2-8-4-11-5-3 0-6-1-8-1h-3v1c-1 2 1 4 3 6 3 2 8 5 14 8zM1155 1023h1c0 1 0 1-1 1-8 0-13 0-17-1-3 0-5-1-5-1v-1c-1-1-1-2 0-2 1-2 3-3 5-4 3-1 7-2 11-3 0 0 1 0 1 1l-1 1c-4 0-7 1-10 2s-4 2-5 3v1c1 1 2 1 5 2 3 0 8 1 16 1zM1228 1003s0-1 1-1h1c1 2 2 4 2 6v6l-3 3c-1 1-2 1-4 1h-1c0-1 1-1 1-1 1 0 2-1 3-1 1-1 2-1 2-2 1-2 1-4 1-5-1-2-1-4-3-6z" />
        </g>
    </g>
    <g class="birds" id="bird3">
        <g id="_1788014667440">
            <path class="fil35" d="M134 998c0-1-1-1-2-1 0 0-1 0-1 1v56c0 1 1 2 1 2 1 0 2-1 2-2v-56zM156 998c0-1-1-1-2-1 0 0-1 0-1 1v56c0 1 1 2 1 2 1 0 2-1 2-2v-56zM214 920l17-7-7 14z" />
            <path class="fil35" d="M133 1053c-1 0-2 0-2 1 0 0 0 1 1 1l12 5c1 0 1 0 2-1 0 0 0-1-1-1l-12-5z" />
            <path class="fil35" d="M134 1054c-1-1-1-1-2-1s-1 1-1 2l2 6c0 1 1 1 2 1 0 0 1-1 0-2l-1-6zM155 1053c-1 0-2 0-2 1 0 0 0 1 1 1l12 5c1 0 1 0 2-1 0 0 0-1-1-1l-12-5z" />
            <path class="fil35" d="M155 1054c0-1 0-1-1-1s-1 1-1 2l2 6c0 1 1 1 1 1 1 0 2-1 1-2l-2-6zM220 927l11-2-8 7z" />
            <path class="b30"  d="M224 927c8 36-16 68-51 81s-117 9-146-23c78 3 49-93 117-109 36-8 72 15 80 51z" />
            <path class="fil23" d="M153 924c6 15 23 22 37 16 15-6 22-23 16-38-6-14-23-21-37-15-15 6-22 22-16 37z" />
            <path class="fil39" d="M168 918c3 9 14 14 24 10 9-4 14-15 10-25-4-9-15-13-25-9-9 4-13 14-9 24z" />
            <path class="fil40" d="M174 918c3 8 12 12 20 9 8-4 12-13 9-21-4-8-13-12-21-8-8 3-12 12-8 20z" />
            <path class="fil23" d="M187 902c2 4 5 5 9 4 3-1 4-5 3-9-1-3-5-4-8-3-4 1-5 5-4 8zM180 906c1 1 2 2 4 1 1 0 1-2 1-3-1-1-2-2-3-1-1 0-2 2-2 3z" />
            <path class="b31"  d="M159 986c-9 12-29 30-84-1 0 0 15-4 26-22 31-50 79-4 58 23z" />
            <path class="fil23" d="M154 983c-8 10-24 25-67 0 0 0 11-3 20-18 25-40 63-3 47 18z" />
            <g>
                <path class="b31"  d="M151 980c-6 8-19 22-58 4 0 0 9-3 16-17 18-36 55-7 42 13zM3 972c2-3 6-4 9-3-3-2-4-6-2-9s6-4 9-3c2 1 4 3 5 5-1-3 1-7 5-8s8 1 8 5c1 0 1 1 1 1 1 7-9 19-9 24h1c-1 1-1 0-1 0 0 1 0 2 1 2 1 1 0 0-3-2-5 1-17 1-22-2-3-2-4-7-2-10z" />
            </g>
            <path class="fil23" d="M147 979c-5 7-15 20-48 4 0 0 8-3 14-15 16-31 45-6 34 11z" />
        </g>
    </g>
    <g id="start-overlay">
        <path class="fil44" d="M1 0h2132v1733H1z" />
        <text x="583" y="763" class="fil27 fnt1">Color Ladder</text>
        <g id="start-button" class="button">
            <rect class="fil27" x="743" y="956" width="647" height="117" rx="78" ry="78" />
            <text x="913" y="1038" class="fil45 fnt2">Play Game</text>
        </g>
    </g>
    <g id="end-overlay" style="display:none;">
        <path class="fil44" d="M1 0h2132v1733H1z" />
        <text x="583" y="763" class="fil27 fnt1">Game Over</text>
        <g id="end-button" class="button">
            <rect class="fil27" x="743" y="956" width="647" height="117" rx="78" ry="78" />
            <text x="850" y="1038" class="fil45 fnt2">Restart Game</text>
        </g>
    </g>
</svg>
